# xmcd CD database file
#
# Track frame offsets:
#	150
#	12607
#	25748
#	33311
#	42970
#	54132
#	65990
#	77487
#	87013
#	94267
#	106340
#	118282
#	130214
#	141501
#	153359
#
# Disc length: 2217 seconds
#
# Revision: 0
# Processed by: cddbd v1.4PL0 Copyright (c) Steve Scherf et al.
# Submitted via: CDex 1.40Beta8
#
DISCID=c708a70f
DTITLE=George Jones - The Lone Star Legend
DYEAR=1900
DGENRE=Country
TTITLE0=Blue Side Of Lonesome
TTITLE1=Cold Heart
TTITLE2=Jambalaya
TTITLE3=Old Brush Arbors
TTITLE4=Once A Day
TTITLE5=She Thinks I Still Care
TTITLE6=There's No Justice
TTITLE7=Worlds Worst Loser
TTITLE8=Ways Of The World 
TTITLE9=They'll Never Take Her Love
TTITLE10=Least Of All
TTITLE11=I Can't Change Overnight
TTITLE12=Tarnished Angel
TTITLE13=You Comb Her Hair
TTITLE14=Wedding Bells
EXTD=ID3G: 2
EXTT0=
EXTT1=
EXTT2=
EXTT3=
EXTT4=
EXTT5=
EXTT6=
EXTT7=
EXTT8=
EXTT9=
EXTT10=
EXTT11=
EXTT12=
EXTT13=
EXTT14=
PLAYORDER=
